<svg xmlns="http://www.w3.org/2000/svg" viewBox="0 0 1800 1050"><defs><linearGradient id="sky" y1="0" y2="1"><stop stop-color="#020407"/><stop offset=".6" stop-color="#07111d"/><stop offset="1" stop-color="#030507"/></linearGradient><linearGradient id="blue" x1="0" x2="1"><stop stop-color="#e6fdff"/><stop offset=".5" stop-color="#74e6ff"/><stop offset="1" stop-color="#2b72ff"/></linearGradient><filter id="glow"><feGaussianBlur stdDeviation="9" result="b"/><feMerge><feMergeNode in="b"/><feMergeNode in="SourceGraphic"/></feMerge></filter></defs><rect width="1800" height="1050" fill="url(#sky)"/><circle cx="1390" cy="190" r="450" fill="#247cff" opacity=".12"/><g stroke="#7eeaff" stroke-opacity=".08"><path d="M0 800H1800M0 860H1800M0 920H1800"/><path d="M200 1050 880 640M570 1050 980 640M950 1050 1080 640M1330 1050 1180 640"/></g><g transform="translate(210 260)"><path d="M0 360 330 140 980 180 1260 380 760 510Z" fill="#09111a" stroke="#7eeaff" stroke-opacity=".2"/><path d="M120 330 380 190 930 220 1120 360 750 440Z" fill="#0d1b29" stroke="#7eeaff" stroke-opacity=".22"/><rect x="330" y="90" width="650" height="180" rx="14" fill="#07111b" stroke="#7eeaff" stroke-opacity=".22"/><rect x="370" y="130" width="120" height="80" fill="#123348"/><rect x="520" y="130" width="120" height="80" fill="#123348"/><rect x="670" y="130" width="120" height="80" fill="#123348"/><rect x="820" y="130" width="120" height="80" fill="#123348"/><text x="395" y="64" fill="#88eaff" font-size="30" font-family="Space Grotesk">NACOREX DEPOT</text></g><g transform="translate(255 660)"><g><rect x="0" y="80" width="300" height="100" rx="28" fill="#0a131e" stroke="#7eeaff" stroke-opacity=".26"/><rect x="45" y="25" width="160" height="80" rx="18" fill="#101d2b"/><circle cx="70" cy="190" r="34" fill="#030507" stroke="#7eeaff"/><circle cx="238" cy="190" r="34" fill="#030507" stroke="#7eeaff"/><path d="M35 115H270" stroke="url(#blue)" stroke-width="4" filter="url(#glow)"/></g><g transform="translate(420 -20)"><rect x="0" y="80" width="300" height="100" rx="28" fill="#0a131e" stroke="#7eeaff" stroke-opacity=".26"/><rect x="45" y="25" width="160" height="80" rx="18" fill="#101d2b"/><circle cx="70" cy="190" r="34" fill="#030507" stroke="#7eeaff"/><circle cx="238" cy="190" r="34" fill="#030507" stroke="#7eeaff"/><path d="M35 115H270" stroke="url(#blue)" stroke-width="4" filter="url(#glow)"/></g><g transform="translate(840 25)"><rect x="0" y="80" width="300" height="100" rx="28" fill="#0a131e" stroke="#7eeaff" stroke-opacity=".26"/><rect x="45" y="25" width="160" height="80" rx="18" fill="#101d2b"/><circle cx="70" cy="190" r="34" fill="#030507" stroke="#7eeaff"/><circle cx="238" cy="190" r="34" fill="#030507" stroke="#7eeaff"/><path d="M35 115H270" stroke="url(#blue)" stroke-width="4" filter="url(#glow)"/></g></g><g font-family="Inter" transform="translate(1140 170)"><rect width="430" height="260" rx="24" fill="rgba(255,255,255,.045)" stroke="#7eeaff" stroke-opacity=".24"/><text x="30" y="54" fill="#88eaff" font-size="14" letter-spacing="4">MARKET IMAGE</text><text x="30" y="108" fill="#fff" font-size="40" font-weight="800">Return-to-base fleets.</text><text x="30" y="160" fill="#9fb1c0" font-size="20">The first customer is practical, operational, and measured by uptime.</text><text x="30" y="222" fill="#88eaff" font-size="18">Municipal · Industrial · Utility</text></g></svg>