<svg xmlns="http://www.w3.org/2000/svg" viewBox="0 0 1600 950" role="img" aria-labelledby="title desc"><title id="title">NaCorex futuristic sodium-ion module</title><desc id="desc">A high-tech industrial sodium-ion battery module render with glowing blue core lines on a dark graphite background.</desc><defs><linearGradient id="bg" x1="0" x2="1" y1="0" y2="1"><stop offset="0" stop-color="#020407"/><stop offset="0.45" stop-color="#07111d"/><stop offset="1" stop-color="#020407"/></linearGradient><linearGradient id="metal" x1="0" x2="1"><stop stop-color="#0b1118"/><stop offset="0.35" stop-color="#1d3348"/><stop offset="0.7" stop-color="#08111a"/><stop offset="1" stop-color="#2b4256"/></linearGradient><linearGradient id="blue" x1="0" x2="1"><stop stop-color="#dffbff"/><stop offset="0.45" stop-color="#74e6ff"/><stop offset="1" stop-color="#276fff"/></linearGradient><filter id="glow" x="-50%" y="-50%" width="200%" height="200%"><feGaussianBlur stdDeviation="8" result="b"/><feMerge><feMergeNode in="b"/><feMergeNode in="SourceGraphic"/></feMerge></filter><pattern id="grid" width="46" height="46" patternUnits="userSpaceOnUse"><path d="M46 0H0V46" fill="none" stroke="#7eeaff" stroke-opacity=".08"/></pattern></defs><rect width="1600" height="950" fill="url(#bg)"/><rect width="1600" height="950" fill="url(#grid)"/><circle cx="1240" cy="190" r="430" fill="#157dff" opacity=".12"/><circle cx="330" cy="810" r="360" fill="#74e6ff" opacity=".06"/><g transform="translate(220 260)"><path d="M160 80 1030 0 1250 190 330 295Z" fill="url(#metal)" stroke="#7eeaff" stroke-opacity=".35" stroke-width="2"/><path d="M330 295 1250 190 1130 500 210 610Z" fill="#07101a" stroke="#7eeaff" stroke-opacity=".24" stroke-width="2"/><path d="M160 80 330 295 210 610 60 370Z" fill="#0a1520" stroke="#7eeaff" stroke-opacity=".20" stroke-width="2"/><path d="M260 130 970 65 1112 185 375 265Z" fill="#02070c" stroke="#7eeaff" stroke-opacity=".18"/><g opacity=".9"><path d="M380 260 1108 185" stroke="url(#blue)" stroke-width="4" filter="url(#glow)"/><path d="M330 338 1190 238" stroke="url(#blue)" stroke-width="2" opacity=".55"/><path d="M290 410 1160 310" stroke="url(#blue)" stroke-width="2" opacity=".35"/><path d="M250 485 1128 385" stroke="url(#blue)" stroke-width="2" opacity=".25"/></g><g transform="translate(370 312)"><rect width="640" height="128" rx="18" fill="#07111b" stroke="#7eeaff" stroke-opacity=".22"/><g transform="translate(24 24)"><rect width="72" height="80" rx="9" fill="url(#blue)" opacity=".86"/><rect x="94" width="72" height="80" rx="9" fill="#13354b" stroke="#7eeaff" stroke-opacity=".25"/><rect x="188" width="72" height="80" rx="9" fill="url(#blue)" opacity=".72"/><rect x="282" width="72" height="80" rx="9" fill="#13354b" stroke="#7eeaff" stroke-opacity=".25"/><rect x="376" width="72" height="80" rx="9" fill="url(#blue)" opacity=".62"/><rect x="470" width="72" height="80" rx="9" fill="#13354b" stroke="#7eeaff" stroke-opacity=".25"/></g></g><circle cx="980" cy="118" r="58" fill="url(#blue)" filter="url(#glow)"/><text x="943" y="135" font-family="Space Grotesk, Arial" font-size="56" font-weight="700" fill="#00131f">Na</text></g><g font-family="Inter, Arial" fill="#dffbff"><text x="92" y="118" font-size="22" letter-spacing="6" fill="#88eaff">NACOREX / CORE MODULE</text><text x="92" y="168" font-size="58" font-weight="800">Sodium-ion system platform</text><text x="95" y="208" font-size="22" fill="#9fb1c0">Concept render for commercial mobility, fleet depots, and cold-weather industrial equipment.</text></g><g transform="translate(1120 690)" font-family="Inter, Arial"><rect width="360" height="132" rx="18" fill="#07111b" stroke="#7eeaff" stroke-opacity=".25"/><text x="28" y="42" font-size="13" letter-spacing="3" fill="#88eaff">SYSTEM STATUS</text><text x="28" y="82" font-size="30" font-weight="800" fill="#fff">Fleet Ready</text><text x="28" y="108" font-size="16" fill="#9fb1c0">Thermal · Module · Controls</text></g></svg>